<?xml version="1.0" encoding="UTF-8" standalone="no"?>
<!-- Created with Inkscape (http://www.inkscape.org/) -->

<svg
   xmlns:dc="http://purl.org/dc/elements/1.1/"
   xmlns:cc="http://creativecommons.org/ns#"
   xmlns:rdf="http://www.w3.org/1999/02/22-rdf-syntax-ns#"
   xmlns:svg="http://www.w3.org/2000/svg"
   xmlns="http://www.w3.org/2000/svg"
   xmlns:sodipodi="http://sodipodi.sourceforge.net/DTD/sodipodi-0.dtd"
   xmlns:inkscape="http://www.inkscape.org/namespaces/inkscape"
   width="384"
   height="512"
   viewBox="0 0 383.99999 511.99998"
   id="svg2"
   version="1.1"
   inkscape:version="0.91 r13725"
   sodipodi:docname="logo.svg">
  <defs
     id="defs4" />
  <sodipodi:namedview
     id="base"
     pagecolor="#ffffff"
     bordercolor="#666666"
     borderopacity="1.0"
     inkscape:pageopacity="0.0"
     inkscape:pageshadow="2"
     inkscape:zoom="1"
     inkscape:cx="163.53005"
     inkscape:cy="70.597984"
     inkscape:document-units="px"
     inkscape:current-layer="layer1"
     showgrid="false"
     inkscape:window-width="3200"
     inkscape:window-height="1752"
     inkscape:window-x="0"
     inkscape:window-y="48"
     inkscape:window-maximized="1"
     fit-margin-top="0"
     fit-margin-left="0"
     fit-margin-right="0"
     fit-margin-bottom="0"
     units="px" />
  <metadata
     id="metadata7">
    <rdf:RDF>
      <cc:Work
         rdf:about="">
        <dc:format>image/svg+xml</dc:format>
        <dc:type
           rdf:resource="http://purl.org/dc/dcmitype/StillImage" />
        <dc:title></dc:title>
      </cc:Work>
    </rdf:RDF>
  </metadata>
  <g
     inkscape:groupmode="layer"
     id="layer3"
     inkscape:label="Logo"
     style="display:inline"
     transform="translate(-151.30999,-70.37635)">
    <g
       id="g4343"
       transform="translate(17.174901,-12.107728)">
      <path
         sodipodi:nodetypes="csscscscc"
         inkscape:connector-curvature="0"
         id="path4260"
         d="m 250.63532,182.88514 c 0,0 -31.55694,27.69731 -53.4693,59.04259 -20.15819,28.83595 -40.66653,63.38787 -45.09571,98.53711 -4.42917,35.14925 10.05532,71.17241 54.98828,94.2461 3.65478,0.92285 8.43579,2.73923 13.10718,-4.58057 2.89451,-4.53553 0.47802,-10.43637 -3.97046,-13.21045 -39.48603,-20.27661 -49.92732,-49.01846 -46.28125,-77.95312 3.64608,-28.93467 20.04471,-62.03644 36.91239,-91.45508 13.24922,-23.26734 28.98251,-42.37558 43.80887,-64.62658 z"
         style="color:#000000;font-style:normal;font-variant:normal;font-weight:normal;font-stretch:normal;font-size:medium;line-height:normal;font-family:sans-serif;text-indent:0;text-align:start;text-decoration:none;text-decoration-line:none;text-decoration-style:solid;text-decoration-color:#000000;letter-spacing:normal;word-spacing:normal;text-transform:none;direction:ltr;block-progression:tb;writing-mode:lr-tb;baseline-shift:baseline;text-anchor:start;white-space:normal;clip-rule:nonzero;display:inline;overflow:visible;visibility:visible;opacity:1;isolation:auto;mix-blend-mode:normal;color-interpolation:sRGB;color-interpolation-filters:linearRGB;solid-color:#000000;solid-opacity:1;fill:#000000;fill-opacity:1;fill-rule:evenodd;stroke:none;stroke-width:20;stroke-linecap:butt;stroke-linejoin:miter;stroke-miterlimit:4;stroke-dasharray:none;stroke-dashoffset:0;stroke-opacity:1;color-rendering:auto;image-rendering:auto;shape-rendering:auto;text-rendering:auto;enable-background:accumulate" />
      <path
         sodipodi:nodetypes="csssczcssssc"
         inkscape:connector-curvature="0"
         id="path4273"
         d="m 316.78906,94.591797 c -1.121,41.402763 -13.51806,71.897343 -27.89258,99.693363 -14.37451,27.79601 -31.09922,52.70856 -38.92187,82.30664 -14.81493,56.05436 -5.65047,94.56059 8.14648,118.58593 13.79696,24.02535 32.66407,33.93555 32.66407,33.93555 4.29286,2.57429 10.83171,1.43317 13.35905,-2.95425 2.52734,-4.38742 2.76288,-10.04182 -4.21648,-14.83286 0,0 -13.26419,-6.60657 -24.46289,-26.10742 -11.19869,-19.50085 -19.89337,-51.5319 -6.15429,-103.51563 6.69265,-25.32256 12.11414,-39.39222 27.34961,-68.23046 10.81667,-20.47417 27.02161,-75.41648 23.33538,-98.66128 z"
         style="color:#000000;font-style:normal;font-variant:normal;font-weight:normal;font-stretch:normal;font-size:medium;line-height:normal;font-family:sans-serif;text-indent:0;text-align:start;text-decoration:none;text-decoration-line:none;text-decoration-style:solid;text-decoration-color:#000000;letter-spacing:normal;word-spacing:normal;text-transform:none;direction:ltr;block-progression:tb;writing-mode:lr-tb;baseline-shift:baseline;text-anchor:start;white-space:normal;clip-rule:nonzero;display:inline;overflow:visible;visibility:visible;opacity:1;isolation:auto;mix-blend-mode:normal;color-interpolation:sRGB;color-interpolation-filters:linearRGB;solid-color:#000000;solid-opacity:1;fill:#000000;fill-opacity:1;fill-rule:evenodd;stroke:none;stroke-width:20;stroke-linecap:butt;stroke-linejoin:miter;stroke-miterlimit:4;stroke-dasharray:none;stroke-dashoffset:0;stroke-opacity:1;color-rendering:auto;image-rendering:auto;shape-rendering:auto;text-rendering:auto;enable-background:accumulate" />
      <path
         sodipodi:nodetypes="ccscscscc"
         inkscape:connector-curvature="0"
         id="path4295"
         d="m 367.94727,141.65039 c -5.84797,47.90337 3.69226,77.23268 10.4707,97.73828 7.73775,23.42489 14.85858,46.24825 17.60547,85.94922 4.34621,62.81614 -33.98633,91.39063 -33.98633,91.39063 -4.49283,3.33456 -5.37614,9.70627 -1.95985,14.13727 3.41628,4.431 9.80309,5.19748 14.17079,1.70062 0,0 47.21642,-37.01455 41.72851,-108.60938 -1.2791,-16.68706 -0.93372,-14.89145 -8.92551,-47.62751 -16.03278,-48.49971 -30.44046,-72.58338 -39.10378,-134.67913 z"
         style="color:#000000;font-style:normal;font-variant:normal;font-weight:normal;font-stretch:normal;font-size:medium;line-height:normal;font-family:sans-serif;text-indent:0;text-align:start;text-decoration:none;text-decoration-line:none;text-decoration-style:solid;text-decoration-color:#000000;letter-spacing:normal;word-spacing:normal;text-transform:none;direction:ltr;block-progression:tb;writing-mode:lr-tb;baseline-shift:baseline;text-anchor:start;white-space:normal;clip-rule:nonzero;display:inline;overflow:visible;visibility:visible;opacity:1;isolation:auto;mix-blend-mode:normal;color-interpolation:sRGB;color-interpolation-filters:linearRGB;solid-color:#000000;solid-opacity:1;fill:#000000;fill-opacity:1;fill-rule:evenodd;stroke:none;stroke-width:20;stroke-linecap:round;stroke-linejoin:miter;stroke-miterlimit:4;stroke-dasharray:none;stroke-dashoffset:0;stroke-opacity:1;color-rendering:auto;image-rendering:auto;shape-rendering:auto;text-rendering:auto;enable-background:accumulate" />
      <path
         sodipodi:nodetypes="cssscscscc"
         inkscape:connector-curvature="0"
         id="path4297"
         d="m 427.62416,220.08318 c 15.00111,23.73182 22.43717,34.4189 31.91392,51.02536 9.01481,15.79701 13.65064,28.76274 16.96527,43.57701 4.71037,21.05235 6.22288,39.14126 3.60411,57.09179 -2.61877,17.95053 -10.77975,32.58869 -30.36914,43.40235 -4.94282,2.61616 -6.77979,8.77712 -4.0768,13.67299 2.703,4.89586 8.89542,6.62382 13.74282,3.83482 24.61065,-13.58548 37.16259,-35.18713 40.49414,-58.02344 3.33154,-22.83631 -1.56296,-46.87388 -9.3086,-69.08789 -7.0459,-19.97518 -38.60092,-69.4076 -62.96572,-85.49299 z"
         style="color:#000000;font-style:normal;font-variant:normal;font-weight:normal;font-stretch:normal;font-size:medium;line-height:normal;font-family:sans-serif;text-indent:0;text-align:start;text-decoration:none;text-decoration-line:none;text-decoration-style:solid;text-decoration-color:#000000;letter-spacing:normal;word-spacing:normal;text-transform:none;direction:ltr;block-progression:tb;writing-mode:lr-tb;baseline-shift:baseline;text-anchor:start;white-space:normal;clip-rule:nonzero;display:inline;overflow:visible;visibility:visible;opacity:1;isolation:auto;mix-blend-mode:normal;color-interpolation:sRGB;color-interpolation-filters:linearRGB;solid-color:#000000;solid-opacity:1;fill:#000000;fill-opacity:1;fill-rule:evenodd;stroke:none;stroke-width:20;stroke-linecap:round;stroke-linejoin:miter;stroke-miterlimit:4;stroke-dasharray:none;stroke-dashoffset:0;stroke-opacity:1;color-rendering:auto;image-rendering:auto;shape-rendering:auto;text-rendering:auto;enable-background:accumulate" />
    </g>
    <g
       style="font-style:normal;font-weight:normal;font-size:40px;line-height:125%;font-family:sans-serif;letter-spacing:0px;word-spacing:0px;fill:#000000;fill-opacity:1;stroke:none;stroke-width:1px;stroke-linecap:butt;stroke-linejoin:miter;stroke-opacity:1"
       id="flowRoot4335" />
  </g>
  <g
     inkscape:groupmode="layer"
     id="layer1"
     inkscape:label="Text"
     style="display:inline"
     transform="translate(-151.30999,-70.37635)">
    <g
       transform="translate(1676.5781,479.89227)"
       style="font-style:normal;font-weight:normal;font-size:40px;line-height:125%;font-family:sans-serif;letter-spacing:0px;word-spacing:0px;display:inline;fill:#000000;fill-opacity:1;stroke:none;stroke-width:1px;stroke-linecap:butt;stroke-linejoin:miter;stroke-opacity:1"
       id="flowRoot4327">
      <path
         d="m -1442.32,5.1763281 c -15.48,0.24 -25.2,11.9999999 -25.2,27.4799999 0,12.36 5.64,24.96 19.56,24.96 8.88,0 15.36,-6.6 16.68,-6.72 1.8,1.08 1.68,5.28 1.56,7.08 -0.6,10.92 -0.36,25.32 -14.88,26.04 -14.4,0 -14.52,-13.2 -18.72,-5.4 -2.04,3.72 7.68,11.76 19.56,11.76 19.8,0 21.36,-17.64 21.24,-41.76 0,-11.04 -0.12,-22.68 0.12,-33.72 0.12,-5.5199999 -0.84,-5.3999999 -4.68,-5.3999999 -3.12,0 -5.88,-4.44 -15.24,-4.32 z m 0.36,6.5999999 c 12.84,0 12.12,7.92 12.12,17.4 0,11.04 -5.76,21.6 -18.36,21.6 -9.12,0 -12,-8.28 -12,-16.56 0,-12.6 5.4,-22.44 18.24,-22.44 z"
         style="font-style:normal;font-variant:normal;font-weight:normal;font-stretch:normal;font-size:120px;font-family:Grundschrift;-inkscape-font-specification:Grundschrift"
         id="path4243"
         inkscape:connector-curvature="0" />
      <path
         d="m -1389.1338,7.6963281 c -16.32,0 -25.56,15.1199999 -25.56,28.6799999 0,10.92 6.36,21 17.28,21 11.4,0 18.12,-8.04 20.28,-8.04 1.32,0 1.9201,2.16 2.28,3.12 1.44,3.6 6.36,4.68 9.84,4.68 1.08,0 5.52,-2.4 5.52,-6.96 0,-3.84 -2.04,0.36 -4.32,0.36 -11.88,0 -8.64,-18 -8.64,-26.04 0,-11.16 -5.04,-16.7999999 -16.68,-16.7999999 z m 8.88,23.8799999 c 0,7.2 0.48,9.6 -4.92,14.64 -4.08,3.72 -9.72,5.4 -15.12,4.32 -4.9199,-0.96 -7.56,-10.44 -7.56,-14.88 0,-12.24 9.12,-21.36 19.8,-21.36 9.12,0 8.16,9 7.8,17.28 z"
         style="font-style:normal;font-variant:normal;font-weight:normal;font-stretch:normal;font-size:120px;font-family:Grundschrift;-inkscape-font-specification:Grundschrift"
         id="path4245"
         inkscape:connector-curvature="0" />
      <path
         d="m -1341.6025,15.136328 c -0.36,-8.2799999 0.84,-7.4399999 -3.48,-8.7599999 l -3.24,0.36 c -0.24,7.5599999 0,17.0399999 0,24.7199999 0,27.12 -0.36,26.28 3.72,26.16 3.6,-0.12 3.36,-1.2 3.36,-11.52 0,-7.68 0.6,-14.52 2.76,-19.92 3.36,-8.4 8.76,-12 13.68,-12.96 3.48,-0.72 8.16,2.52 9.48,1.08 4.08,-4.5599999 -2.52,-7.5599999 -9.24,-7.5599999 -9.6,0 -16.92,11.2799999 -17.04,8.3999999 z"
         style="font-style:normal;font-variant:normal;font-weight:normal;font-stretch:normal;font-size:120px;font-family:Grundschrift;-inkscape-font-specification:Grundschrift"
         id="path4247"
         inkscape:connector-curvature="0" />
      <path
         d="m -1298.8188,-33.223672 c -3.48,0 -3.6,1.08 -3.72,6.72 -0.36,21.2400001 -0.36,19.6800001 -0.36,39.48 0,38.52 -1.68,45 13.44,45 3.48,0 13.56,-1.92 13.56,-6 0,-9 -12.12,2.52 -17.16,-2.28 -3.36,-3.24 -2.88,-0.6 -2.88,-38.52 0,-19.7999999 0.12,-27.12 0,-36.96 -0.12,-6.36 -0.24,-7.44 -2.88,-7.44 z"
         style="font-style:normal;font-variant:normal;font-weight:normal;font-stretch:normal;font-size:120px;font-family:Grundschrift;-inkscape-font-specification:Grundschrift"
         id="path4249"
         inkscape:connector-curvature="0" />
      <path
         d="m -1260.9363,-15.463672 c -2.4,-3 -7.44,2.4 -5.04,5.6400001 2.76,3.6 9.48,0 5.04,-5.6400001 z m -2.28,22.5600001 c -3.84,0 -3.24,1.56 -3.24,22.6799999 0,20.16 0,27.6 9.12,27.6 8.04,0 9.48,-3.36 8.28,-6.96 -0.84,-2.52 -0.48,0.84 -6.48,0.84 -4.2,0 -3.36,-3.72 -3.6,-31.32 -0.12,-12.8399999 -0.12,-12.8399999 -4.08,-12.8399999 z"
         style="font-style:normal;font-variant:normal;font-weight:normal;font-stretch:normal;font-size:120px;font-family:Grundschrift;-inkscape-font-specification:Grundschrift"
         id="path4251"
         inkscape:connector-curvature="0" />
      <path
         d="m -1213.1763,5.5363281 c -12.12,0 -25.44,9.9599999 -25.44,27.9599999 0,9.6 6.6,23.16 20.64,23.16 10.2001,0 18.96,-7.92 18.96,-13.32 0,-0.84 -0.24,-1.92 -1.32,-1.92 -6.12,0 -7.08,8.64 -17.52,8.64 -8.28,0 -14.04,-8.76 -14.04,-16.32 0,-11.52 8.28,-21.12 18.84,-21.12 5.2801,0 4.92,0.72 6.24,0.72 1.56,0 2.76,-0.48 2.76,-2.28 0,-5.5199999 -5.04,-5.5199999 -9.12,-5.5199999 z"
         style="font-style:normal;font-variant:normal;font-weight:normal;font-stretch:normal;font-size:120px;font-family:Grundschrift;-inkscape-font-specification:Grundschrift"
         id="path4253"
         inkscape:connector-curvature="0" />
    </g>
  </g>
</svg>
